# Blender v2.93.4 OBJ File: 'AT_assets.blend'
# www.blender.org
mtllib pillar_mid.mtl
o Pillar_Mid_Cube.002
v -0.600000 -1.000000 0.600000
v -0.600000 1.000000 0.600000
v -0.600000 -1.000000 -0.600000
v -0.600000 1.000000 -0.600000
v 0.600000 -1.000000 0.600000
v 0.600000 1.000000 0.600000
v 0.600000 -1.000000 -0.600000
v 0.600000 1.000000 -0.600000
v -0.600000 -0.100000 0.600000
v -0.600000 -0.100000 -0.600000
v 0.600000 -0.100000 -0.600000
v 0.600000 -0.100000 0.600000
v -0.600000 0.100000 0.600000
v -0.600000 0.100000 -0.600000
v 0.600000 0.100000 -0.600000
v 0.600000 0.100000 0.600000
v -0.546000 0.070000 -0.540000
v -0.546000 -0.070000 -0.540000
v 0.546000 0.070000 -0.540000
v 0.546000 -0.070000 -0.540000
v 0.546000 0.070000 0.540000
v 0.546000 -0.070000 0.540000
v -0.546000 -0.070000 0.540000
v -0.546000 0.070000 0.540000
vt 0.562500 0.000000
vt 0.625000 0.000000
vt 0.625000 0.250000
vt 0.562500 0.250000
vt 0.625000 0.500000
vt 0.562500 0.500000
vt 0.625000 0.750000
vt 0.562500 0.750000
vt 0.625000 1.000000
vt 0.562500 1.000000
vt 0.125000 0.500000
vt 0.375000 0.500000
vt 0.375000 0.750000
vt 0.125000 0.750000
vt 0.875000 0.500000
vt 0.875000 0.750000
vt 0.500000 0.750000
vt 0.500000 1.000000
vt 0.375000 1.000000
vt 0.500000 0.500000
vt 0.375000 0.250000
vt 0.500000 0.250000
vt 0.375000 0.000000
vt 0.500000 0.000000
vt 0.500000 0.000000
vt 0.500000 0.250000
vt 0.562500 0.750000
vt 0.562500 0.500000
vt 0.500000 0.750000
vt 0.500000 1.000000
vt 0.562500 0.250000
vt 0.562500 0.000000
vt 0.562500 1.000000
vt 0.500000 0.500000
vn -1.0000 0.0000 0.0000
vn 0.0000 0.0000 -1.0000
vn 1.0000 0.0000 0.0000
vn 0.0000 0.0000 1.0000
vn 0.0000 -1.0000 0.0000
vn 0.0000 1.0000 0.0000
vn -0.4856 0.8742 0.0000
vn 0.4856 -0.8742 0.0000
vn 0.0000 0.8944 0.4472
vn -0.4856 -0.8742 0.0000
vn 0.4856 0.8742 0.0000
vn 0.0000 -0.8944 -0.4472
vn 0.0000 -0.8944 0.4472
vn 0.0000 0.8944 -0.4472
usemtl None
s off
f 13/1/1 2/2/1 4/3/1 14/4/1
f 14/4/2 4/3/2 8/5/2 15/6/2
f 15/6/3 8/5/3 6/7/3 16/8/3
f 16/8/4 6/7/4 2/9/4 13/10/4
f 3/11/5 7/12/5 5/13/5 1/14/5
f 8/5/6 4/15/6 2/16/6 6/7/6
f 5/13/4 12/17/4 9/18/4 1/19/4
f 7/12/3 11/20/3 12/17/3 5/13/3
f 3/21/2 10/22/2 11/20/2 7/12/2
f 1/23/1 9/24/1 10/22/1 3/21/1
f 10/22/7 9/24/7 23/25/7 18/26/7
f 15/6/8 16/8/8 21/27/8 19/28/8
f 9/18/9 12/17/9 22/29/9 23/30/9
f 13/1/10 14/4/10 17/31/10 24/32/10
f 22/29/4 21/27/4 24/33/4 23/30/4
f 20/34/3 19/28/3 21/27/3 22/29/3
f 18/26/2 17/31/2 19/28/2 20/34/2
f 23/25/1 24/32/1 17/31/1 18/26/1
f 12/17/11 11/20/11 20/34/11 22/29/11
f 14/4/12 15/6/12 19/28/12 17/31/12
f 16/8/13 13/10/13 24/33/13 21/27/13
f 11/20/14 10/22/14 18/26/14 20/34/14
