# Blender v2.93.4 OBJ File: 'AT_assets.blend'
# www.blender.org
mtllib corner_01.mtl
o Wall_Mid_Start_Cube.004
v -1.000000 -1.000000 1.000000
v -1.000000 1.000000 0.000000
v -1.000000 -1.000000 -1.000000
v -1.000000 1.000000 -1.000000
v 1.000000 -1.000000 1.000000
v 1.000000 1.000000 0.000000
v 1.000000 -1.000000 -1.000000
v 1.000000 1.000000 -1.000000
v -1.000000 0.000000 0.000000
v -1.000000 0.000000 -1.000000
v 1.000000 0.000000 -1.000000
v 1.000000 0.000000 0.000000
vt 0.500000 0.568971
vt 0.333489 0.568971
vt 0.333489 0.402460
vt 0.500000 0.402460
vt 0.333177 0.499688
vt 0.333178 0.666199
vt 0.000156 0.666199
vt 0.000156 0.499688
vt 0.833333 0.333177
vt 0.666822 0.333177
vt 0.666822 0.166667
vt 0.833333 0.166667
vt 0.333489 0.166667
vt 0.333489 0.000156
vt 0.666511 0.000156
vt 0.666511 0.166667
vt 0.333177 0.333177
vt 0.000156 0.333178
vt 0.000156 0.000156
vt 0.333178 0.000156
vt 0.333178 0.832710
vt 0.000156 0.832710
vt 0.333489 0.402149
vt 0.666511 0.402149
vt 0.999844 0.333177
vt 0.999844 0.000156
vt 0.666511 0.735482
vt 0.666511 0.402460
vn -1.0000 0.0000 0.0000
vn 0.0000 0.0000 -1.0000
vn 1.0000 0.0000 0.0000
vn 0.0000 0.0000 1.0000
vn 0.0000 -1.0000 0.0000
vn 0.0000 1.0000 0.0000
vn 0.0000 0.7071 0.7071
usemtl None
s off
f 9/1/1 2/2/1 4/3/1 10/4/1
f 10/5/2 4/6/2 8/7/2 11/8/2
f 11/9/3 8/10/3 6/11/3 12/12/3
f 12/13/4 6/14/4 2/15/4 9/16/4
f 3/17/5 7/18/5 5/19/5 1/20/5
f 8/7/6 4/6/6 2/21/6 6/22/6
f 5/23/7 12/13/7 9/16/7 1/24/7
f 7/25/3 11/9/3 12/12/3 5/26/3
f 3/17/2 10/5/2 11/8/2 7/18/2
f 1/27/1 9/1/1 10/4/1 3/28/1
