# Blender v2.93.4 OBJ File: 'AT_assets.blend'
# www.blender.org
mtllib corner_02.mtl
o Wall_Mid_Mid_Cube.005
v -1.000000 -1.000000 0.000000
v -1.000000 1.000000 0.000000
v -1.000000 -1.000000 -1.000000
v -1.000000 1.000000 -1.000000
v 1.000000 -1.000000 0.000000
v 1.000000 1.000000 0.000000
v 1.000000 -1.000000 -1.000000
v 1.000000 1.000000 -1.000000
v -1.000000 -0.400000 0.000000
v -1.000000 -0.400000 -1.000000
v 1.000000 -0.400000 -1.000000
v 1.000000 -0.400000 0.000000
v -1.000000 0.400000 0.000000
v -1.000000 0.400000 -1.000000
v 1.000000 0.400000 -1.000000
v 1.000000 0.400000 0.000000
v -1.000000 0.400000 -1.000000
v -1.000000 -0.400000 -1.000000
v 1.000000 0.400000 -1.000000
v 1.000000 -0.400000 -1.000000
v 1.000000 0.400000 0.000000
v 1.000000 -0.400000 0.000000
v -1.000000 -0.400000 0.000000
v -1.000000 0.400000 0.000000
v -0.998681 0.356735 -0.999292
v -0.998681 -0.356735 -0.999292
v 0.999190 0.356735 -0.999292
v 0.999190 -0.356735 -0.999292
v 0.999190 0.356735 -0.154081
v 0.999190 -0.356735 -0.154081
v -0.998681 -0.356735 -0.154081
v -0.998681 0.356735 -0.154081
vt 0.804314 0.700094
vt 0.804314 0.820421
vt 0.603770 0.820421
vt 0.603770 0.700094
vt 0.798922 0.292598
vt 0.798923 0.411968
vt 0.401021 0.411969
vt 0.401020 0.292599
vt 0.999822 0.287942
vt 0.999822 0.408269
vt 0.799278 0.408268
vt 0.799278 0.287942
vt 0.000178 0.320567
vt 0.000178 0.200421
vt 0.400665 0.200421
vt 0.400665 0.320567
vt 0.401020 0.817113
vt 0.401020 0.412325
vt 0.603415 0.412325
vt 0.603415 0.817113
vt 0.000178 0.000178
vt 0.400665 0.000178
vt 0.000178 0.661654
vt 0.000178 0.541508
vt 0.400665 0.541508
vt 0.400665 0.661654
vt 0.999822 0.000178
vt 0.999822 0.120504
vt 0.799278 0.120504
vt 0.799278 0.000178
vt 0.798923 0.000178
vt 0.798922 0.119549
vt 0.401021 0.119548
vt 0.401021 0.000178
vt 0.804314 0.412325
vt 0.804314 0.532651
vt 0.603770 0.532651
vt 0.603770 0.412325
vt 0.400665 0.327557
vt 0.000178 0.327557
vt 0.401020 0.285654
vt 0.798922 0.285653
vt 0.999822 0.124004
vt 0.799278 0.124004
vt 0.804314 0.536151
vt 0.603770 0.536151
vt 0.401021 0.126493
vt 0.798922 0.126493
vt 0.798660 0.135101
vt 0.401182 0.135100
vt 0.999822 0.284442
vt 0.799278 0.284442
vt 0.830178 0.275764
vt 0.999680 0.275764
vt 0.804314 0.696594
vt 0.603770 0.696594
vt 0.603912 0.687914
vt 0.773414 0.687914
vt 0.999680 0.132682
vt 0.830178 0.132682
vt 0.000178 0.534519
vt 0.400665 0.534519
vt 0.000340 0.502472
vt 0.000340 0.359604
vt 0.400401 0.359604
vt 0.400401 0.502472
vt 0.798660 0.277046
vt 0.401182 0.277045
vt 0.773414 0.544832
vt 0.603912 0.544832
vn -1.0000 0.0000 0.0000
vn 0.0000 0.0000 -1.0000
vn 1.0000 0.0000 0.0000
vn 0.0000 0.0000 1.0000
vn 0.0000 -1.0000 0.0000
vn 0.0000 1.0000 0.0000
vn 0.0000 0.0164 -0.9999
vn 0.9998 -0.0187 0.0000
vn -0.9995 -0.0305 0.0000
vn 0.9998 0.0187 0.0000
vn 0.0000 0.9628 0.2703
vn 0.0000 -0.0164 -0.9999
vn 0.0000 -0.9628 0.2703
vn -0.9995 0.0305 0.0000
usemtl None
s off
f 13/1/1 2/2/1 4/3/1 14/4/1
f 14/5/2 4/6/2 8/7/2 15/8/2
f 15/9/3 8/10/3 6/11/3 16/12/3
f 16/13/4 6/14/4 2/15/4 13/16/4
f 3/17/5 7/18/5 5/19/5 1/20/5
f 8/21/6 4/22/6 2/15/6 6/14/6
f 5/23/4 12/24/4 9/25/4 1/26/4
f 7/27/3 11/28/3 12/29/3 5/30/3
f 3/31/2 10/32/2 11/33/2 7/34/2
f 1/35/1 9/36/1 10/37/1 3/38/1
f 16/13/4 13/16/4 24/39/4 21/40/4
f 14/5/4 15/8/4 19/41/4 17/42/4
f 12/29/4 11/28/4 20/43/4 22/44/4
f 10/37/4 9/36/4 23/45/4 18/46/4
f 20/47/7 18/48/7 26/49/7 28/50/7
f 19/51/8 21/52/8 29/53/8 27/54/8
f 24/55/9 17/56/9 25/57/9 32/58/9
f 22/44/10 20/43/10 28/59/10 30/60/10
f 11/33/4 10/32/4 18/48/4 20/47/4
f 13/1/4 14/4/4 17/56/4 24/55/4
f 9/25/4 12/24/4 22/61/4 23/62/4
f 15/9/4 16/12/4 21/52/4 19/51/4
f 30/63/4 29/64/4 32/65/4 31/66/4
f 28/59/3 27/54/3 29/53/3 30/60/3
f 26/49/2 25/67/2 27/68/2 28/50/2
f 31/69/1 32/58/1 25/57/1 26/70/1
f 23/62/11 22/61/11 30/63/11 31/66/11
f 17/42/12 19/41/12 27/68/12 25/67/12
f 21/40/13 24/39/13 32/65/13 29/64/13
f 18/46/14 23/45/14 31/69/14 26/70/14
